<svg width="26" height="26" viewBox="0 0 26 26" fill="none" xmlns="http://www.w3.org/2000/svg">
<g filter="url(#filter0_d_6_216)">
<rect x="4" width="17.1922" height="17.1922" fill="white" shape-rendering="crispEdges"/>
<rect x="4.5" y="0.5" width="16.1922" height="16.1922" stroke="black" shape-rendering="crispEdges"/>
<rect x="4.5" y="0.5" width="16.1922" height="16.1922" stroke="black" stroke-opacity="0.2" shape-rendering="crispEdges"/>
<path d="M20.1384 17.1922L13.8577 10.9115C13.3577 11.3243 12.7827 11.6474 12.1327 11.8807C11.4827 12.114 10.8102 12.2307 10.1154 12.2307C8.40767 12.2307 6.96152 11.6384 5.77691 10.4538C4.5923 9.26919 4 7.82304 4 6.11536C4 4.40767 4.5923 2.96152 5.77691 1.77691C6.96152 0.592305 8.40767 0 10.1154 0C11.823 0 13.2692 0.592305 14.4538 1.77691C15.6384 2.96152 16.2307 4.40767 16.2307 6.11536C16.2307 6.82946 16.1108 7.51151 15.8711 8.16151C15.6314 8.81151 15.3115 9.37689 14.9115 9.85766L21.1922 16.1384L20.1384 17.1922ZM10.1154 10.7307C11.4038 10.7307 12.4952 10.2836 13.3894 9.3894C14.2836 8.49517 14.7307 7.40382 14.7307 6.11536C14.7307 4.82689 14.2836 3.73554 13.3894 2.84131C12.4952 1.94708 11.4038 1.49996 10.1154 1.49996C8.82689 1.49996 7.73554 1.94708 6.84131 2.84131C5.94708 3.73554 5.49996 4.82689 5.49996 6.11536C5.49996 7.40382 5.94708 8.49517 6.84131 9.3894C7.73554 10.2836 8.82689 10.7307 10.1154 10.7307Z" fill="#1C1917"/>
</g>
<defs>
<filter id="filter0_d_6_216" x="0" y="0" width="25.1922" height="25.1922" filterUnits="userSpaceOnUse" color-interpolation-filters="sRGB">
<feFlood flood-opacity="0" result="BackgroundImageFix"/>
<feColorMatrix in="SourceAlpha" type="matrix" values="0 0 0 0 0 0 0 0 0 0 0 0 0 0 0 0 0 0 127 0" result="hardAlpha"/>
<feOffset dy="4"/>
<feGaussianBlur stdDeviation="2"/>
<feComposite in2="hardAlpha" operator="out"/>
<feColorMatrix type="matrix" values="0 0 0 0 0 0 0 0 0 0 0 0 0 0 0 0 0 0 0.25 0"/>
<feBlend mode="normal" in2="BackgroundImageFix" result="effect1_dropShadow_6_216"/>
<feBlend mode="normal" in="SourceGraphic" in2="effect1_dropShadow_6_216" result="shape"/>
</filter>
</defs>
</svg>
